<?xml version="1.0" standalone="no"?>
<!DOCTYPE svg PUBLIC "-//W3C//DTD SVG 20010904//EN"
 "http://www.w3.org/TR/2001/REC-SVG-20010904/DTD/svg10.dtd">
<svg version="1.0" xmlns="http://www.w3.org/2000/svg"
 width="500.000000pt" height="500.000000pt" viewBox="0 0 500.000000 500.000000"
 preserveAspectRatio="xMidYMid meet">

<g transform="translate(0.000000,500.000000) scale(0.100000,-0.100000)"
fill="#ffffff" stroke="none">
<path d="M2425 3374 c-209 -29 -374 -111 -503 -249 -86 -92 -130 -159 -166
-249 -39 -99 -48 -155 -30 -183 31 -48 76 -19 94 62 26 118 147 293 260 379
134 100 271 141 444 133 141 -7 236 -36 338 -105 154 -104 258 -253 308 -439
13 -51 48 -67 80 -38 27 24 25 50 -10 153 -38 109 -73 167 -162 268 -139 158
-332 253 -543 267 -44 3 -93 3 -110 1z"/>
<path d="M2364 2949 c-103 -39 -184 -135 -205 -242 -10 -48 -9 -60 5 -82 l16
-25 315 0 c300 0 315 1 325 19 14 28 13 69 -6 131 -22 74 -115 168 -197 198
-75 29 -181 29 -253 1z"/>
<path d="M1720 2535 c-21 -26 -7 -137 26 -203 l29 -57 717 -3 717 -2 17 25
c21 32 54 149 54 192 0 58 -14 63 -180 63 l-149 0 -40 -40 -39 -40 -382 0
-382 0 -39 40 -40 40 -148 0 c-121 0 -151 -3 -161 -15z"/>
<path d="M1918 2143 c-53 -14 -16 -93 80 -168 78 -62 241 -142 327 -160 145
-30 337 -12 467 44 126 54 298 193 298 242 0 10 -11 26 -24 34 -21 14 -54 16
-216 13 -188 -3 -193 -4 -209 -26 -56 -79 -51 -77 -154 -77 -87 0 -98 2 -121
24 -14 13 -28 32 -31 41 -11 33 -51 40 -228 39 -95 -1 -180 -3 -189 -6z"/>
</g>
</svg>
