<?xml version="1.0" standalone="no"?>
<!DOCTYPE svg PUBLIC "-//W3C//DTD SVG 20010904//EN"
 "http://www.w3.org/TR/2001/REC-SVG-20010904/DTD/svg10.dtd">
<svg version="1.0" xmlns="http://www.w3.org/2000/svg"
 width="176.000000pt" height="186.000000pt" viewBox="0 0 176.000000 186.000000"
 preserveAspectRatio="xMidYMid meet">

<g transform="translate(0.000000,186.000000) scale(0.100000,-0.100000)"
fill="#000000" stroke="none">
<path d="M664 1746 c-259 -67 -489 -271 -585 -521 -38 -98 -44 -171 -14 -191
16 -11 25 -11 45 -1 19 10 29 28 43 82 32 123 90 218 202 330 147 148 282 211
475 222 174 10 341 -42 487 -150 120 -89 226 -246 268 -397 16 -58 26 -77 45
-87 34 -17 64 4 68 46 7 67 -64 233 -149 347 -119 162 -315 290 -501 328 -115
24 -273 20 -384 -8z"/>
<path d="M751 1324 c-131 -47 -228 -162 -238 -283 -9 -100 -25 -96 344 -99
373 -3 366 -4 371 76 6 105 -78 228 -198 288 -70 35 -208 44 -279 18z"/>
<path d="M45 873 c-14 -13 -16 -28 -11 -67 9 -76 34 -152 60 -183 l24 -28 737
-1 c405 -1 748 1 763 5 15 4 35 22 45 39 40 69 61 214 35 240 -8 8 -62 12
-176 12 l-163 0 -36 -40 -36 -40 -417 0 -417 0 -36 40 -36 40 -160 0 c-136 0
-162 -2 -176 -17z"/>
<path d="M245 447 c-28 -21 -12 -62 46 -118 100 -98 226 -168 376 -211 109
-31 293 -31 408 1 150 40 271 108 376 211 64 63 76 100 39 120 -14 7 -93 10
-232 8 -207 -3 -211 -3 -227 -26 -55 -78 -52 -77 -151 -81 -105 -4 -144 8
-165 50 -30 56 -42 59 -255 59 -149 0 -201 -3 -215 -13z"/>
</g>
</svg>
